PathFileType  4	(X/Y/Z) C:\Users\antoi\Documents\MyRepositories\mobilecap\ResultsAnalysis
DataRate	CameraRate	NumFrames	NumMarkers	Units	OrigDataRate	OrigDataStartFrame	OrigNumFrames
100.0	100.0	4	51	mm	100.0	110	125
Frame#	Time	r_knee			r_shank_antsup			r_ankle			r_calc			r_5meta			r_toe			L_knee			L_shank_antsup			L_ankle			L_calc			L_5meta			L_toe			r_sh2			r_sh3			r_sh4			L_sh2			L_sh3			r_thigh1			r_thigh2			r_thigh3			r_thigh4			r_thigh5			L_thigh1			L_thigh2			L_thigh3			L_thigh4			r.ASIS			r.PSIS			L.ASIS			L.PSIS			C7			R_Shoulder			L_Shoulder			R_Sternum			L_Sternum			R_humerus			R_elbow_med			R_elbow_lat			R_forearm			R_wrist_radius			R_wrist_ulna			L_humerus			L_elbow_med			L_elbow_lat			L_forearm			L_wrist_radius			L_wrist_ulna			R_HJC			L_HJC			R_HJC_reg			L_HJC_reg			
		X1	Y1	Z1	X2	Y2	Z2	X3	Y3	Z3	X4	Y4	Z4	X5	Y5	Z5	X6	Y6	Z6	X7	Y7	Z7	X8	Y8	Z8	X9	Y9	Z9	X10	Y10	Z10	X11	Y11	Z11	X12	Y12	Z12	X13	Y13	Z13	X14	Y14	Z14	X15	Y15	Z15	X16	Y16	Z16	X17	Y17	Z17	X18	Y18	Z18	X19	Y19	Z19	X20	Y20	Z20	X21	Y21	Z21	X22	Y22	Z22	X23	Y23	Z23	X24	Y24	Z24	X25	Y25	Z25	X26	Y26	Z26	X27	Y27	Z27	X28	Y28	Z28	X29	Y29	Z29	X30	Y30	Z30	X31	Y31	Z31	X32	Y32	Z32	X33	Y33	Z33	X34	Y34	Z34	X35	Y35	Z35	X36	Y36	Z36	X37	Y37	Z37	X38	Y38	Z38	X39	Y39	Z39	X40	Y40	Z40	X41	Y41	Z41	X42	Y42	Z42	X43	Y43	Z43	X44	Y44	Z44	X45	Y45	Z45	X46	Y46	Z46	X47	Y47	Z47	X48	Y48	Z48	X49	Y49	Z49	X50	Y50	Z50	X51	Y51	Z51	

110	1.09000000	1497.47450	451.04391	-155.75961	1525.38906	383.55045	-138.18284	1568.05195	86.42167	-190.13105	1505.40538	51.89790	-230.10931	1675.48949	52.65716	-166.86601	1715.35706	82.38987	-221.13893	1205.40058	440.19369	-410.45772	1186.12307	370.48648	-412.62393	957.45080	158.22372	-365.94027	881.78725	176.46083	-318.91933	990.24135	51.32583	-375.99176	1044.00513	48.96837	-322.28293	1550.94637	274.09233	-142.81374	1452.69000	365.49014	-145.73851	1470.81098	251.04608	-155.06210	1123.16525	433.98582	-422.40148	1045.69409	340.50694	-416.43898	1449.69126	761.94650	-146.79634	1495.46348	657.94465	-147.96162	1462.97007	620.50133	-101.96710	1366.01389	726.94815	-78.09529	1405.28921	618.55024	-94.51878	1347.14722	701.25496	-439.24746	1318.61524	565.70921	-434.61581	1234.57472	726.71470	-441.46547	1212.32756	586.86236	-423.86016	1410.05693	885.20155	-151.89891	1222.36956	886.17017	-206.37887	1393.67085	868.14081	-409.59357	1214.78673	884.43434	-311.54867	1280.56775	1359.77936	-279.81072	1321.24087	1302.06625	-119.49579	1353.44364	1303.30470	-433.51258	1391.41816	1271.17170	-250.93894	1394.26343	1270.62791	-295.44338	1281.31350	1066.53270	-36.88831	1234.63939	966.93837	-96.24974	1236.94415	988.98205	-26.77350	1259.12029	875.22081	12.32978	1254.78825	756.38457	30.43098	1210.88406	758.03045	23.59429	1426.99786	1198.51683	-474.89924	1450.20529	973.66352	-476.04627	1473.55773	999.67986	-527.59200	1582.31501	979.75561	-501.68355	1684.91988	920.11835	-455.94811	1680.92985	892.16750	-481.55071	1349.14886	804.14725	-168.82527	1334.77699	796.21860	-368.44867	1353.54045	790.28944	-182.90987	1341.25218	787.49138	-353.22188	
111	1.10000000	1512.04960	452.06951	-155.82339	1538.07434	383.46533	-138.40024	1571.14799	86.10423	-190.86615	1506.73019	53.11463	-230.43200	1677.19035	49.15703	-166.88720	1718.55023	76.57927	-221.63023	1228.99319	437.61365	-412.59441	1207.38389	368.93853	-415.44769	970.95670	165.49828	-366.77155	898.85080	190.84649	-319.19059	993.89528	55.71050	-375.69445	1048.19931	49.37209	-323.06984	1560.82008	273.42454	-143.19921	1465.08873	367.32015	-146.45941	1480.23827	252.51307	-155.94210	1146.52705	434.98028	-423.35581	1065.49401	344.57778	-416.87823	1464.70508	763.33769	-145.90506	1510.31487	659.23830	-147.62902	1477.70799	621.67773	-101.73746	1381.13459	728.33184	-76.95577	1420.44180	620.43321	-93.76550	1365.98045	700.91723	-438.37666	1340.23071	564.82534	-435.67322	1253.25516	724.38774	-439.92065	1233.64322	583.94224	-424.37485	1425.56748	886.05629	-150.37533	1237.91422	886.84352	-206.53608	1410.66676	867.91052	-407.97461	1231.10941	884.02614	-312.06467	1295.05530	1360.12989	-277.13055	1338.00358	1301.62817	-117.18248	1367.50539	1304.11236	-431.73607	1406.31927	1271.76688	-249.15212	1408.96983	1271.31033	-293.58344	1300.27525	1065.22473	-35.49374	1252.77800	965.94087	-95.01016	1255.86074	987.59515	-25.44458	1277.58754	873.61395	12.92230	1272.44446	754.69268	30.46517	1228.54517	756.68555	23.92616	1440.08494	1198.27951	-473.94502	1460.81986	972.97298	-475.66123	1483.77469	998.96633	-527.52333	1592.52888	978.05270	-501.73246	1694.60257	917.58267	-455.99811	1690.45554	889.75456	-481.76318	1364.54142	804.93947	-167.52396	1351.76685	795.98239	-367.19409	1368.82498	791.75366	-180.86860	1357.83236	787.22456	-351.15147	
112	1.11000000	1525.83580	453.39840	-155.30419	1549.83628	383.68249	-137.89248	1573.28846	86.06344	-191.22789	1507.62088	53.95864	-230.54182	1678.29746	46.81000	-166.59825	1720.68668	72.33806	-221.76176	1253.89906	434.91816	-414.87736	1230.32733	367.37085	-418.34863	986.31835	173.14319	-367.76088	918.81503	205.80750	-319.54118	998.56423	61.28671	-375.43056	1053.26411	50.48496	-324.19227	1569.53184	273.09525	-142.85303	1476.54254	369.62721	-146.51733	1488.49276	254.50694	-156.12031	1171.56420	435.76413	-424.49996	1087.14232	348.53881	-417.49236	1479.29159	765.18270	-144.48518	1524.77579	661.01247	-146.47736	1491.91856	623.35781	-100.74684	1395.59742	730.17598	-75.58046	1435.04777	622.72071	-92.52598	1385.35524	700.94391	-437.44443	1362.80499	564.19784	-436.71527	1272.34852	721.85099	-438.77654	1255.85216	580.79798	-425.34238	1440.51164	887.51643	-148.65761	1253.03934	888.03029	-207.03463	1427.37928	868.07212	-406.17268	1247.09891	883.98892	-312.92793	1309.46109	1360.92821	-274.63876	1354.58781	1301.65899	-115.06870	1381.54243	1305.27267	-430.12931	1421.02879	1272.76810	-247.44451	1423.49543	1272.38003	-291.80268	1319.70091	1064.31561	-34.26581	1271.23109	965.33100	-93.82895	1275.33180	986.58321	-24.15150	1296.73715	872.38130	13.35077	1290.82297	753.36239	30.31614	1246.90981	755.76726	24.34068	1452.98553	1198.25132	-473.14255	1470.87760	972.50283	-475.15869	1493.43945	998.39014	-527.34667	1602.12898	976.15774	-501.92911	1703.52241	914.54883	-456.39939	1699.11960	886.84240	-482.30993	1379.35169	806.30753	-166.16924	1368.55285	796.13890	-365.87899	1383.61140	793.84752	-178.57597	1374.04869	787.36689	-348.82425	
113	1.12000000	1538.52386	454.82124	-154.20192	1560.54578	384.05164	-136.72184	1574.61720	86.16260	-191.27940	1508.14618	54.50176	-230.49694	1678.93652	45.37444	-166.12850	1721.95808	69.46770	-221.63993	1279.92459	432.21095	-417.19902	1254.77375	365.76759	-421.15992	1003.52189	181.10138	-368.85056	941.42177	220.87020	-319.93868	1004.76066	68.12910	-375.29287	1059.56736	52.52437	-325.63175	1577.05185	272.96782	-141.87870	1486.92106	372.20326	-145.78816	1495.55338	256.81043	-155.52308	1198.12429	436.28839	-425.86429	1110.54880	352.26085	-418.33286	1493.52649	767.32923	-142.56770	1538.78288	663.05567	-144.53121	1505.46511	625.35793	-99.08272	1409.38835	732.41780	-74.07244	1448.98991	625.28715	-90.91877	1405.05304	701.37129	-436.46867	1386.11309	563.91694	-437.66419	1291.67036	719.18359	-438.05892	1278.74680	577.57765	-426.66484	1454.91666	889.59923	-146.79171	1267.74919	889.68353	-207.80693	1443.68027	868.64868	-404.24906	1262.69836	884.34825	-314.03906	1323.78801	1362.14697	-272.40106	1370.91860	1302.19267	-113.21744	1395.53584	1306.80300	-428.69995	1435.55236	1274.14306	-245.86605	1437.83696	1273.80951	-290.15652	1339.51286	1063.88719	-33.26170	1289.99172	965.15595	-92.75124	1295.31208	986.01103	-22.94484	1316.57030	871.60148	13.58454	1309.96452	752.47437	29.98073	1266.01741	755.34833	24.83720	1465.70694	1198.50789	-472.49065	1480.34222	972.34786	-474.52669	1502.56974	998.03018	-527.01903	1611.11667	974.12293	-502.24199	1711.66420	911.03694	-457.14624	1706.89760	883.45706	-483.18142	1393.61758	808.24868	-164.78357	1385.04141	796.71038	-364.51362	1397.95429	796.48815	-176.10966	1389.85232	787.95212	-346.32816	
